<svg id="Warstwa_1" xmlns="http://www.w3.org/2000/svg" viewBox="0 0 354.6 129.58"><defs><style>.cls-1{fill:#e52421;stroke-width:0}</style></defs><path class="cls-1" d="M146.41 0c-31.9.12-63.79.68-95.67 1.69-8.97.28-17.93.6-26.9.96-2.12.08-4.32 1.49-4.82 3.67s.3 4.57 2.3 5.65c18.96 10.22 37.92 20.44 57.22 30.01 19.49 9.66 39.35 18.66 59.73 26.3 11.28 4.23 22.72 8.01 34.32 11.24l1.33-9.82c-22.87-.13-45.7 1.45-68.35 4.56-22.2 3.05-44.18 7.68-65.72 13.85-12.2 3.5-24.26 7.49-36.14 11.96-2.44.92-4.38 3.42-3.49 6.15.77 2.39 3.53 4.48 6.15 3.49 20.98-7.89 42.5-14.28 64.39-19.11a473.37 473.37 0 0132.82-6.04c1.4-.21 2.79-.41 4.19-.6.31-.04.62-.09.93-.13 1-.14.28-.04.07-.01.78-.1 1.55-.21 2.33-.31a480.445 480.445 0 0125.02-2.54 472.19 472.19 0 0137.81-1.29c2.49.01 4.59-1.91 4.91-4.34s-1.17-4.81-3.58-5.49c-10.26-2.86-20.4-6.15-30.41-9.8-5.07-1.85-10.12-3.79-15.12-5.81a506.618 506.618 0 01-7.37-3.04c-.28-.12-.57-.24-.85-.36-.57-.24-1.14-.48-1.7-.73-1.28-.55-2.55-1.1-3.83-1.66-19.58-8.56-38.7-18.14-57.62-28.07-10.7-5.62-21.33-11.35-31.97-17.09l-2.52 9.32c31.87-1.26 63.76-2.07 95.66-2.44 8.97-.1 17.94-.17 26.91-.2 2.62 0 5.12-2.29 5-5S149.21 0 146.41 0z"/><path class="cls-1" d="M189.05 3.71c-13.52 11.8-27.05 23.6-40.57 35.4s-27.05 23.6-40.57 35.4C100.27 81.17 92.63 87.84 85 94.5c-3.22 2.81-.69 8.77 3.54 8.54 21.82-1.21 43.61-2.91 65.35-5.1s43.67-4.91 65.4-8.08c12.19-1.78 24.36-3.72 36.51-5.8 2.58-.44 4.27-3.76 3.49-6.15-.9-2.79-3.38-3.97-6.15-3.49a1449.96 1449.96 0 01-48.22 7.47c-1.3.18-2.6.36-3.91.53.22-.03.88-.12-.14.02-.33.04-.65.09-.98.13-.73.1-1.47.19-2.2.29-2.69.35-5.38.7-8.07 1.04a1461.72 1461.72 0 01-64.71 6.68c-12.12.98-24.25 1.8-36.39 2.47l3.54 8.54c13.52-11.8 27.05-23.6 40.57-35.4 13.52-11.8 27.05-23.6 40.57-35.4 7.64-6.66 15.28-13.33 22.91-19.99 1.98-1.73 1.9-5.33 0-7.07-2.11-1.93-4.96-1.84-7.07 0v-.02z"/><path class="cls-1" d="M179.59 108.31c5.13-6.82 10.28-13.63 15.45-20.42 2.59-3.39 5.18-6.78 7.78-10.17l3.9-5.07 1.8-2.34c.12-.16.86-1.11.42-.55.35-.45.7-.91 1.05-1.36 9.29-12 18.35-24.41 29.23-35.05 1.44-1.41 2.92-2.79 4.43-4.12.73-.64 1.47-1.27 2.22-1.9.43-.35.86-.71 1.29-1.05.16-.13.33-.26.49-.39.08-.06.78-.61.31-.25s.09-.07.15-.12c.22-.17.44-.33.67-.5.39-.29.78-.58 1.18-.86a78.626 78.626 0 017.93-5.01l-7.52-4.32c-.12 1.54-.27 3.07-.44 4.6a90 90 0 01-.27 2.3l-.12.92c-.15 1.21.09-.6-.07.51-.43 3.06-.92 6.11-1.47 9.15-1.11 6.17-2.42 12.31-3.76 18.43-2.71 12.42-5.45 24.84-6.89 37.48-.78 6.86-1.12 13.76-.8 20.66.12 2.61 2.22 5.12 5 5 2.61-.12 5.13-2.2 5-5-.28-6.13-.05-12.27.56-18.37.15-1.52.33-3.05.52-4.57 0 .04.19-1.45.09-.7s.11-.75.1-.7c.12-.84.24-1.67.37-2.51.47-3.04 1.01-6.07 1.58-9.1 2.34-12.24 5.36-24.34 7.62-36.59 1.31-7.11 2.37-14.29 2.96-21.5.32-3.94-4.44-6.02-7.52-4.32-13.21 7.3-23.88 18.25-33.39 29.79-10.63 12.9-20.67 26.32-30.81 39.6a3666.49 3666.49 0 00-17.69 23.35c-1.58 2.1-.41 5.68 1.79 6.84 2.63 1.39 5.16.45 6.84-1.79h.02z"/><path class="cls-1" d="M202.43 79.07c16.85-1.75 33.7-3.51 50.55-5.26l14.37-1.5c2.59-.27 5.13-2.11 5-5-.11-2.48-2.21-5.29-5-5-16.85 1.75-33.7 3.51-50.55 5.26l-14.37 1.5c-2.59.27-5.13 2.11-5 5 .11 2.48 2.21 5.29 5 5z"/><path class="cls-1" d="M265.01 28.83l-5.91 38.63c-.31 2.05.05 3.91 1.79 5.26 1.62 1.25 3.75 1.35 5.55.39 10.75-5.7 21.51-11.4 32.45-16.74 5.43-2.65 10.9-5.2 16.43-7.62.64-.28 1.28-.56 1.92-.83.43-.18.85-.36 1.28-.55.15-.06.88-.37.09-.04 1.43-.6 2.85-1.19 4.29-1.76 2.86-1.15 5.75-2.26 8.65-3.32 6.38-2.33 12.86-4.41 19.42-6.19l-3.85-9.14c-21.63 12.14-43.26 24.28-64.88 36.43-21.63 12.14-43.26 24.28-64.88 36.43-12.19 6.84-24.39 13.69-36.58 20.53-2.28 1.28-3.24 4.6-1.79 6.84s4.4 3.16 6.84 1.79c21.63-12.14 43.26-24.28 64.88-36.43 21.63-12.14 43.26-24.28 64.88-36.43 12.19-6.84 24.39-13.69 36.58-20.53 2.17-1.22 2.99-4.01 2.05-6.24s-3.47-3.55-5.9-2.89c-23.89 6.46-46.45 17-68.39 28.32-6.2 3.2-12.36 6.46-18.52 9.73 2.45 1.88 4.9 3.76 7.34 5.65l5.91-38.63c.39-2.57-.65-5.5-3.49-6.15-2.39-.54-5.73.73-6.15 3.49h-.01z"/></svg>